<svg xmlns="http://www.w3.org/2000/svg" width="57.897" height="58" viewBox="0 0 57.897 58">
  <g id="Group_1191" data-name="Group 1191" transform="translate(-1136 -453)">
    <g id="Group_1092" data-name="Group 1092" transform="translate(-11976 -1954)">
      <g id="Group_1036" data-name="Group 1036" transform="translate(13112 2407)">
        <path id="Path_593" data-name="Path 593" d="M-419.478-219.136h6.572c1.245,0,2.49-.016,3.734.005a2.784,2.784,0,0,1,2.761,2.754c.021.93,0,1.861,0,2.853.9,0,1.752,0,2.6,0a2.807,2.807,0,0,1,3,2.989q0,15.722,0,31.445a2.8,2.8,0,0,1-2.953,2.98q-12.924.006-25.848,0a2.792,2.792,0,0,1-2.945-2.928q-.006-22.269.017-44.537a1.5,1.5,0,0,1,.453-1.06,3.562,3.562,0,0,0,1.423-3.486,38.514,38.514,0,0,1-.026-3.972,1.876,1.876,0,0,1,2-2.01q2.655-.01,5.309,0a1.876,1.876,0,0,1,2.021,2.052c.005,1.831-.012,3.663.016,5.494a1.121,1.121,0,0,0,.33.794,3.742,3.742,0,0,1,1.544,3.753A23.536,23.536,0,0,0-419.478-219.136Zm-11.206,7.484v.7q0,15.785,0,31.569c0,1.153.25,1.4,1.4,1.4h25.212c1.149,0,1.4-.252,1.4-1.4q0-11.751,0-23.5,0-3.8,0-7.6c0-.839-.329-1.163-1.167-1.168s-1.674.02-2.509-.011a.715.715,0,0,0-.727.431c-.7,1.212-1.437,2.406-2.146,3.614a1.2,1.2,0,0,1-1.144.648q-6.3-.016-12.606,0a1.24,1.24,0,0,1-1.183-.682q-1.074-1.84-2.2-3.653a.709.709,0,0,0-.463-.333C-428.074-211.664-429.337-211.652-430.684-211.652Zm11.209-1.912h11.2c0-.952.017-1.864-.007-2.776a.885.885,0,0,0-.933-.918q-4.662-.018-9.324,0a.883.883,0,0,0-.93.92C-419.492-215.425-419.475-214.513-419.475-213.563Zm-4.869,1.942c.548.914,1.046,1.766,1.574,2.6a.6.6,0,0,0,.442.169q5.658.014,11.316,0a.586.586,0,0,0,.436-.178c.527-.832,1.025-1.683,1.569-2.589Zm1.105-20.568h-5.53v5.539h5.53ZM-430-213.562h7.978c-.652-.493-1.206-.91-1.758-1.329a2.808,2.808,0,0,1,.016-4.761l1.72-1.3h-7.942c.649.489,1.211.9,1.764,1.331a2.815,2.815,0,0,1-.016,4.733C-428.79-214.469-429.347-214.055-430-213.562Zm-.816-9.345h9.6a7.586,7.586,0,0,0-.417-.8,2.463,2.463,0,0,0-2.434-1.068,25.242,25.242,0,0,1-3.9,0A2.459,2.459,0,0,0-430.4-223.7,7.849,7.849,0,0,0-430.817-222.907Zm.159,7.484c.481-.356.884-.653,1.285-.952a2.082,2.082,0,0,0,.225-.185.9.9,0,0,0,.014-1.387c-.46-.4-.97-.747-1.524-1.168Zm9.287-3.691c-.542.407-1,.73-1.439,1.085a.877.877,0,0,0-.148,1.374c.471.441,1.016.8,1.587,1.243Z" transform="translate(458.698 234.105)" fill="#fc723b"/>
        <path id="Path_594" data-name="Path 594" d="M-579.757-200.473q0,10.582,0,21.163c0,2.117-1.09,3.216-3.189,3.216q-7.12,0-14.24,0a2.831,2.831,0,0,1-3.114-3.114q0-21.192,0-42.385a4.71,4.71,0,0,1,3.608-4.9.881.881,0,0,0,.438-.565c.525-2.014,1.017-4.037,1.525-6.055.2-.807.431-.979,1.265-.98q3.443,0,6.887,0c.82,0,1.05.179,1.255.993.5,1.981,1,3.961,1.479,5.947a.887.887,0,0,0,.707.765,4.582,4.582,0,0,1,3.378,4.573Q-579.751-211.142-579.757-200.473Zm-1.868,16.875v-.581q0-18.728,0-37.456a2.833,2.833,0,0,0-3.125-3.1q-5.279,0-10.558,0a2.836,2.836,0,0,0-3.124,3.159q0,18.67,0,37.339v.639Zm0,1.928h-16.757a.683.683,0,0,0-.042.144c0,.759-.008,1.518-.007,2.277,0,.991.292,1.283,1.284,1.283h10.785c1.224,0,2.449.007,3.673,0a.93.93,0,0,0,1.059-.976C-581.612-179.836-581.626-180.73-581.626-181.669Zm-4.461-46.788h-7.882l-.453,1.829h8.789Zm-.928-3.729h-6.028l-.442,1.813h6.913Z" transform="translate(600.301 234.093)" fill="#fc723b"/>
        <path id="Path_595" data-name="Path 595" d="M-396.454-48.045H-385.6c.994,0,1.283.29,1.284,1.286q0,3.42,0,6.84c0,.916-.311,1.227-1.226,1.227q-10.914,0-21.827,0c-.915,0-1.223-.31-1.224-1.228q0-3.449,0-6.9c0-.918.307-1.225,1.225-1.226Q-401.911-48.047-396.454-48.045ZM-406.7-40.6h20.47v-5.544H-406.7Z" transform="translate(438.475 77.046)" fill="#fc723b"/>
        <path id="Path_596" data-name="Path 596" d="M-550.913-32.649c0,1.81.006,3.621,0,5.431a3.743,3.743,0,0,1-3.722,3.89,3.74,3.74,0,0,1-3.744-3.867q-.012-5.489,0-10.979a3.738,3.738,0,0,1,3.75-3.86,3.738,3.738,0,0,1,3.716,3.836C-550.9-36.348-550.913-34.5-550.913-32.649Zm-1.868-.994c0-1.568.008-3.067,0-4.565a1.876,1.876,0,0,0-1.882-1.954,1.875,1.875,0,0,0-1.848,1.988c-.008,1.363,0,2.726,0,4.088,0,.148.026.3.04.442Zm-3.734,1.925c0,1.606-.016,3.144.006,4.681a1.858,1.858,0,0,0,1.876,1.838,1.869,1.869,0,0,0,1.847-1.871c.019-.953,0-1.908.005-2.862q0-.892,0-1.786Z" transform="translate(564.92 71.971)" fill="#fc723b"/>
        <path id="Path_597" data-name="Path 597" d="M-564.342-145.411a4.683,4.683,0,0,1,4.711-4.645,4.683,4.683,0,0,1,4.623,4.734,4.687,4.687,0,0,1-4.682,4.617A4.685,4.685,0,0,1-564.342-145.411Zm3.739-2.542a2.725,2.725,0,0,0-1.841,3.021,2.829,2.829,0,0,0,2.9,2.353,2.829,2.829,0,0,0,2.658-2.564,2.631,2.631,0,0,0-1.869-2.78v1.568H-560.6Z" transform="translate(569.947 163.156)" fill="#fc723b"/>
      </g>
    </g>
  </g>
</svg>
