<svg xmlns="http://www.w3.org/2000/svg" xmlns:xlink="http://www.w3.org/1999/xlink" width="172.86" height="44.972" viewBox="0 0 172.86 44.972">
  <defs>
    <linearGradient id="linear-gradient" x1="-0.109" y1="-0.085" x2="0.981" y2="0.962" gradientUnits="objectBoundingBox">
      <stop offset="0" stop-color="orange"/>
      <stop offset="1" stop-color="#f94c66"/>
    </linearGradient>
  </defs>
  <g id="Group_1108" data-name="Group 1108" transform="translate(-13420.469 1279.073)">
    <g id="Group_1107" data-name="Group 1107" transform="translate(74.572 87.897)">
      <path id="Path_660" data-name="Path 660" d="M100.138,450.438h2.48v5.978h-2.48A17.027,17.027,0,0,1,87.492,451.4a18.73,18.73,0,0,1,0-25.4,17.032,17.032,0,0,1,12.646-5.016h20.331v1.547H118.5v6.994h-5.977v-2.564h-12.38a11.3,11.3,0,0,0-8.43,3.255,12.842,12.842,0,0,0,0,16.969A11.3,11.3,0,0,0,100.138,450.438Zm22.41-13.938c-.01-.011-.02-.023-.031-.034a2.1,2.1,0,0,0-1.587-.576h-8.412v4.4H118.5V436.5Zm-13.526,13.938v.611H118.5v-4.4h-5.977v3.787Zm34.5-14.9a17.03,17.03,0,0,0-12.647-5.017h-5.79a8.4,8.4,0,0,1,4.245,5.977h1.545a11.3,11.3,0,0,1,8.432,3.255,12.842,12.842,0,0,1,0,16.969,11.3,11.3,0,0,1-8.432,3.255H118.5v-2.564h-5.976v6.993h-1.975v1.547h20.331a17.03,17.03,0,0,0,12.647-5.016,18.731,18.731,0,0,0,0-25.4Zm-37.741,7.91a7.329,7.329,0,0,0-2.164,5.4v7.565h25.307v-5.927h-1.092v1.56H108.023v-3.2a3.176,3.176,0,0,1,.858-2.32,3.07,3.07,0,0,1,2.3-.877h9.749a7.264,7.264,0,0,0,5.381-2.164,7.872,7.872,0,0,0,0-10.8,7.264,7.264,0,0,0-5.381-2.164H103.422v5.927h1.092v-1.56H120.93a3.071,3.071,0,0,1,2.3.877,3.566,3.566,0,0,1,0,4.64,3.071,3.071,0,0,1-2.3.877h-9.749A7.328,7.328,0,0,0,105.781,443.449Z" transform="translate(13263.367 -1787.953)" fill="url(#linear-gradient)"/>
      <path id="Path_661" data-name="Path 661" d="M478.186,477.74a6.309,6.309,0,0,1-1.786,4.6,6.1,6.1,0,0,1-4.548,1.823h-7.089V471.59h7.089a6.336,6.336,0,0,1,4.557,1.694A5.874,5.874,0,0,1,478.186,477.74Zm-2.191.184a3.987,3.987,0,0,0-4.143-4.143h-4.916v8.194h4.916a4.118,4.118,0,0,0,2.974-1.123A3.876,3.876,0,0,0,475.995,477.924Z" transform="translate(12953.349 -1828.999)" fill="#fff"/>
      <path id="Path_662" data-name="Path 662" d="M558.189,484.009l-2.817-.018-2.117-3.517h-5.966l1.326-2.173h3.333l-2.191-3.627-5.671,9.317h-2.817L548.1,472.63a2.944,2.944,0,0,1,.718-.81,1.7,1.7,0,0,1,.994-.423,1.631,1.631,0,0,1,.994.4,2.9,2.9,0,0,1,.718.829Z" transform="translate(12891.297 -1828.842)" fill="#fff"/>
      <path id="Path_663" data-name="Path 663" d="M621.972,471.59,615.73,480v4.161h-2.173v-4.2l-6.408-8.378h2.817l4.732,6.187,4.438-6.187Z" transform="translate(12837.862 -1828.999)" fill="#fff"/>
      <path id="Path_664" data-name="Path 664" d="M706.16,475.052a3.182,3.182,0,0,1-1.179,2.578,4.2,4.2,0,0,1-2.743.9h-4.53a3.134,3.134,0,0,0-1.547.368,1.417,1.417,0,0,0-.773,1.27v1.8h10.5v2.191H693.4v-4a3.493,3.493,0,0,1,1.307-2.817,4.532,4.532,0,0,1,3-1.013h4.53a1.73,1.73,0,0,0,1.068-.331,1.1,1.1,0,0,0,.442-.939,1.136,1.136,0,0,0-.442-.939,1.669,1.669,0,0,0-1.068-.35H693.6V471.59h8.636a4.2,4.2,0,0,1,2.743.9A3.163,3.163,0,0,1,706.16,475.052Z" transform="translate(12767.907 -1828.999)" fill="#fff"/>
      <path id="Path_665" data-name="Path 665" d="M790.052,477.74a6.309,6.309,0,0,1-1.786,4.6,6.1,6.1,0,0,1-4.548,1.823h-7.089V471.59h7.089a6.336,6.336,0,0,1,4.557,1.694A5.874,5.874,0,0,1,790.052,477.74Zm-2.191.184a3.987,3.987,0,0,0-4.143-4.143H778.8v8.194h4.916a4.117,4.117,0,0,0,2.974-1.123A3.876,3.876,0,0,0,787.861,477.924Z" transform="translate(12700.403 -1828.999)" fill="#fff"/>
      <path id="Path_666" data-name="Path 666" d="M870.054,484.009l-2.817-.018-2.117-3.517h-5.966l1.326-2.173h3.333l-2.191-3.627-5.671,9.317h-2.817l6.831-11.361a2.942,2.942,0,0,1,.718-.81,1.7,1.7,0,0,1,.994-.423,1.631,1.631,0,0,1,.994.4,2.891,2.891,0,0,1,.718.829Z" transform="translate(12638.354 -1828.842)" fill="#fff"/>
      <path id="Path_667" data-name="Path 667" d="M933.839,471.59,927.6,480v4.161h-2.173v-4.2l-6.408-8.378h2.817l4.732,6.187L931,471.59Z" transform="translate(12584.917 -1828.999)" fill="#fff"/>
      <path id="Path_668" data-name="Path 668" d="M464.763,558.734h1.3l2.034,7.91,2.248-7.91h1.365l2.141,7.883,2.048-7.883h1.312l-2.7,9.328h-1.365l-2.168-7.508-2.248,7.508-1.352.013Z" transform="translate(12953.349 -1899.679)" fill="#fff"/>
      <path id="Path_669" data-name="Path 669" d="M561.406,563.833h-4.751v4.229h-1.218v-9.328h1.218v4.1h4.751v-4.1h1.218v9.328h-1.218Z" transform="translate(12879.806 -1899.679)" fill="#fff"/>
      <path id="Path_670" data-name="Path 670" d="M624.372,567.7a4.765,4.765,0,1,1,4.684-4.764A4.6,4.6,0,0,1,624.372,567.7Zm0-1.057a3.718,3.718,0,1,0-3.44-3.707A3.407,3.407,0,0,0,624.372,566.639Z" transform="translate(12827.693 -1899.219)" fill="#fff"/>
      <path id="Path_671" data-name="Path 671" d="M696.7,558.734v8.338h3.265v.99h-4.483v-9.328Z" transform="translate(12766.216 -1899.679)" fill="#fff"/>
      <path id="Path_672" data-name="Path 672" d="M748.817,559.667h-3.8v3.118h3.4v1h-3.4V567h3.8v1H743.8v-9.342h5.019Z" transform="translate(12727.031 -1899.621)" fill="#fff"/>
      <path id="Path_673" data-name="Path 673" d="M799.656,567.639c-1.874,0-3.2-1.044-3.226-2.583h1.3a1.728,1.728,0,0,0,1.927,1.553c1.178,0,1.874-.669,1.874-1.553,0-2.516-5.046-.91-5.046-4.376,0-1.539,1.245-2.583,3.092-2.583,1.78,0,2.944.977,3.091,2.4h-1.338a1.69,1.69,0,0,0-1.807-1.352c-1-.027-1.793.5-1.793,1.5,0,2.409,5.032.91,5.032,4.363C802.76,566.328,801.676,567.639,799.656,567.639Z" transform="translate(12684.343 -1899.162)" fill="#fff"/>
      <path id="Path_674" data-name="Path 674" d="M860.125,566.218h-4.069l-.75,2.074h-1.285l3.373-9.275H858.8l3.359,9.275h-1.285Zm-2.034-5.7-1.686,4.711h3.373Z" transform="translate(12637.632 -1899.908)" fill="#fff"/>
      <path id="Path_675" data-name="Path 675" d="M923.812,558.734v8.338h3.266v.99h-4.483v-9.328Z" transform="translate(12582.016 -1899.679)" fill="#fff"/>
      <path id="Path_676" data-name="Path 676" d="M975.925,559.667h-3.8v3.118h3.4v1h-3.4V567h3.8v1h-5.019v-9.342h5.019Z" transform="translate(12542.831 -1899.621)" fill="#fff"/>
    </g>
  </g>
</svg>
